<svg width="24" height="30" viewBox="0 0 24 30" fill="none" xmlns="http://www.w3.org/2000/svg">
<path d="M11.9919 27.657L11.0689 24.5011C9.38462 24.6622 6.47041 25.404 5.19005 21.0264C4.27706 17.9049 5.35895 16.1881 6.67087 15.5097C5.9553 13.6929 4.4354 9.3779 4.08037 6.65259C3.63657 3.24595 6.9241 2.39493 7.84715 5.55089L10.0208 12.9827C11.3845 9.71044 18.5926 9.03895 20.1112 14.231C21.7786 19.9321 19.6041 20.9364 18.297 22.387L19.2201 25.543L11.9919 27.657Z" fill="white"/>
<path d="M19.7039 14.3511C19.0082 11.9725 17.0203 10.9253 14.9937 10.8577C12.9256 10.7887 10.9995 11.7383 10.4124 13.147C10.3432 13.3129 10.1768 13.4173 9.99728 13.4074C9.81777 13.3974 9.66405 13.2754 9.61357 13.1028L7.43994 5.67104C7.01605 4.22175 6.13885 3.89174 5.56434 4.05078C4.96265 4.21735 4.29474 5.01552 4.501 6.59882C4.84861 9.26707 6.35013 13.5389 7.06553 15.3553C7.14522 15.5577 7.05895 15.7876 6.8657 15.8875C6.29979 16.1802 5.7783 16.6978 5.49604 17.4945C5.21266 18.2944 5.15894 19.4098 5.59723 20.9083C6.20769 22.9955 7.17191 23.7719 8.10379 24.0615C9.09791 24.3705 10.1265 24.1659 11.0284 24.0797C11.2311 24.0603 11.419 24.1877 11.4761 24.383L12.2801 27.1318L18.6938 25.2559L17.8898 22.5072C17.8485 22.3659 17.8833 22.2134 17.9817 22.1041C18.1552 21.9115 18.3413 21.7284 18.5219 21.5517C18.7052 21.3723 18.8834 21.199 19.0564 21.0138C19.399 20.6468 19.7072 20.2472 19.9305 19.7346C20.3734 18.7173 20.5235 17.1535 19.7039 14.3511ZM10.1576 11.9402C11.2094 10.6396 13.1512 9.94741 15.022 10.0098C17.3201 10.0864 19.6955 11.2995 20.5183 14.1129C21.3661 17.0116 21.2628 18.8006 20.7086 20.0734C20.4333 20.7057 20.057 21.1856 19.6765 21.593C19.4878 21.795 19.2947 21.9827 19.1154 22.1582C18.9947 22.2764 18.8804 22.3893 18.7722 22.5014L19.6273 25.4249C19.6931 25.6498 19.5641 25.8854 19.3392 25.9512L12.111 28.0653C11.8861 28.1311 11.6505 28.0021 11.5847 27.7772L10.7615 24.9626C9.97988 25.055 8.89124 25.1948 7.85211 24.8718C6.58576 24.4783 5.45265 23.4368 4.78279 21.1465C4.30811 19.5236 4.33889 18.2198 4.69616 17.2113C5.00063 16.3519 5.53381 15.7317 6.14474 15.328C5.38723 13.3527 4.00119 9.33079 3.65955 6.70851C3.42202 4.88524 4.17603 3.55457 5.33786 3.2329C6.52693 2.90376 7.75522 3.72616 8.25438 5.43283L10.1576 11.9402Z" fill="black"/>
<ellipse cx="12.4252" cy="17.8059" rx="0.63642" ry="1.37891" transform="rotate(-16.303 12.4252 17.8059)" fill="black"/>
<ellipse cx="15.8866" cy="16.7932" rx="0.63642" ry="1.37891" transform="rotate(-16.303 15.8866 16.7932)" fill="black"/>
</svg>
