<svg width="482" height="208" viewBox="0 0 482 208" fill="none" xmlns="http://www.w3.org/2000/svg">
<path fill-rule="evenodd" clip-rule="evenodd" d="M46.1562 72.8401C46.8912 76.4997 50.124 79.2562 54 79.2562C57.0851 79.2562 59.76 77.5086 61.0947 74.9505C61.6303 78.2971 64.3798 80.9021 67.7939 81.221C62.7921 88.0776 54.5 102.759 54.5 124.756C54.5 173.756 103 169.256 110.5 207.256H0C0 134.713 26.1021 92.2497 46.1562 72.8401ZM48.5 95.2562C47.6716 95.2562 47 95.9277 47 96.7562C47 97.5846 47.6716 98.2562 48.5 98.2562C49.3284 98.2562 50 97.5846 50 96.7562C50 95.9277 49.3284 95.2562 48.5 95.2562ZM43.5 85.2562C42.1193 85.2562 41 86.3754 41 87.7562C41 89.1369 42.1193 90.2562 43.5 90.2562C44.8807 90.2562 46 89.1369 46 87.7562C46 86.3754 44.8807 85.2562 43.5 85.2562ZM55.5 83.2562C53.567 83.2562 52 84.8232 52 86.7562C52 88.6891 53.567 90.2562 55.5 90.2562C57.433 90.2562 59 88.6891 59 86.7562C59 84.8232 57.433 83.2562 55.5 83.2562ZM76.71 9.63604C84.5442 -0.931933 99.4633 -3.1484 110.031 4.68584C120.599 12.5201 122.814 27.4383 114.98 38.0062L101.719 55.8939C101.826 55.9661 101.934 56.0405 102.039 56.1185C105.677 58.8155 106.44 63.952 103.743 67.5901L94.6738 79.8235L87.7725 74.7064V74.7073L68.3848 60.3333C67.1789 63.2238 64.3276 65.2562 61 65.2562C56.5817 65.2562 53 61.6744 53 57.2562C53 54.7723 54.1319 52.5526 55.9082 51.0853L43.2295 41.6868L52.2979 29.4534C54.9167 25.9208 59.8354 25.0983 63.4492 27.5228L76.71 9.63604ZM69.5 65.2562C73.0899 65.2562 76 68.1663 76 71.7562C76 75.346 73.0898 78.2562 69.5 78.2562C65.9102 78.2562 63 75.346 63 71.7562C63 68.1663 65.9101 65.2562 69.5 65.2562ZM54 66.2562C56.7614 66.2562 59 68.4947 59 71.2562C59 74.0176 56.7614 76.2562 54 76.2562C51.2386 76.2562 49 74.0176 49 71.2562C49 68.4947 51.2386 66.2562 54 66.2562ZM89.9736 20.594C87.1711 18.5813 81.8395 21.2086 78.0654 26.4632C74.2915 31.7179 73.5045 37.6103 76.3066 39.6233C79.1093 41.6357 84.4409 39.0078 88.2148 33.7532C91.9888 28.4984 92.7761 22.607 89.9736 20.594Z" fill="black"/>
<path d="M123 149H127C138.046 149 147 157.955 147 169V206H123V149Z" fill="black"/>
<rect x="165" y="124" width="24" height="82" fill="black"/>
<rect x="434" y="124" width="24" height="82" fill="black"/>
<rect x="374" y="123" width="24" height="82" fill="black"/>
<path d="M228 124H232C243.046 124 252 132.955 252 144V206H228V124Z" fill="black"/>
<rect x="291" y="124" width="24" height="82" fill="black"/>
<path d="M335 124H339C350.046 124 359 132.955 359 144V206H335V124Z" fill="black"/>
<path d="M123 124H132C140.284 124 147 130.716 147 139H123V124Z" fill="black"/>
<path d="M189 124H198C206.284 124 213 130.716 213 139H189V124Z" fill="black"/>
<path d="M458 124H467C475.284 124 482 130.716 482 139H458V124Z" fill="black"/>
<path d="M398 123H407C415.284 123 422 129.716 422 138H398V123Z" fill="black"/>
<path d="M189 149H198C206.284 149 213 155.716 213 164H189V149Z" fill="black"/>
<path d="M458 149H467C475.284 149 482 155.716 482 164H458V149Z" fill="black"/>
<path d="M398 148H407C415.284 148 422 154.716 422 163H398V148Z" fill="black"/>
<path d="M252 149H261C269.284 149 276 155.716 276 164H252V149Z" fill="black"/>
<path d="M252 191H261C269.284 191 276 197.716 276 206H252V191Z" fill="black"/>
<rect x="315" y="124" width="20" height="15" fill="black"/>
<rect x="315" y="191" width="20" height="15" fill="black"/>
</svg>
