<svg width="6" height="7" viewBox="0 0 6 7" fill="none" xmlns="http://www.w3.org/2000/svg">
<path fill-rule="evenodd" clip-rule="evenodd" d="M0.688596 2.41761C0.671035 1.10136 1.65267 0.0190701 2.88101 0.000247829C4.10932 -0.0185399 5.11931 1.03325 5.13687 2.34948L5.16652 4.57743C5.17861 4.57663 5.1908 4.57615 5.20304 4.57596C5.62591 4.56949 5.97361 4.93153 5.97965 5.38466L6 6.90837L0.0204272 7L7.9907e-05 5.47629C-0.00579193 5.03628 0.312665 4.6723 0.718293 4.64564L0.688596 2.41761ZM2.29404 2.48353C1.97197 2.49368 1.72521 3.02646 1.74295 3.67357C1.7607 4.32069 2.03629 4.83707 2.35837 4.82692C2.68043 4.81673 2.92708 4.28395 2.90933 3.63686C2.89158 2.98974 2.61613 2.47339 2.29404 2.48353Z" fill="black"/>
</svg>
